<svg xmlns="http://www.w3.org/2000/svg" aria-hidden="true" style="position:absolute;width:0;height:0;overflow:hidden">
  <defs>
    <symbol id="logo" viewBox="0 0 32 32">
      <path d="m0 0 16.343 16.171L32 32V0H0z" fill="#F6F6F6"/>
      <path d="M4.457 4.229 16.4 16.058l11.257 11.486h-23.2V4.23z" fill="#F6F6F6"/>
      <path d="M27.733 27.618 15.79 15.789 4.533 4.303h23.2v23.314z" fill="#4F2EE8"/>
      <path d="m9.257 9.029 13.6 13.6h-13.6v-13.6z" fill="#4F2EE8"/>
      <path d="m9.257 9.029 13.6 13.6v-13.6h-13.6z" fill="#F6F6F6"/>
    </symbol>
    <symbol id="Bookshelf" viewBox="0 0 176 32">
      <path d="M22.176 8.533c0-4.731-3.497-7.406-9.545-7.406H0v29.417h13.33c6.089 0 9.998-2.921 9.998-8.599 0-4.402-2.633-6.665-5.719-7.2v-.082c2.427-.823 4.567-2.51 4.567-6.13zm-17.28 4.772V5.282h7.858c2.921 0 4.526 1.44 4.526 4.032s-1.317 3.991-4.814 3.991h-7.57zm0 3.662h8.599c3.086 0 4.937 1.687 4.937 4.69 0 2.757-1.275 4.731-5.472 4.731H4.896v-9.422zM35.89 31.161c-6.583 0-10.574-4.567-10.574-11.109S29.307 8.943 35.89 8.943s10.574 4.567 10.574 11.109-3.991 11.109-10.574 11.109zm0-3.538c4.114 0 6.254-3.25 6.254-7.57 0-4.361-2.139-7.57-6.254-7.57s-6.254 3.209-6.254 7.57c0 4.32 2.139 7.57 6.254 7.57zM58.912 31.161c-6.583 0-10.574-4.567-10.574-11.109S52.329 8.943 58.912 8.943s10.574 4.567 10.574 11.109-3.991 11.109-10.574 11.109zm0-3.538c4.114 0 6.254-3.25 6.254-7.57 0-4.361-2.139-7.57-6.254-7.57s-6.254 3.209-6.254 7.57c0 4.32 2.139 7.57 6.254 7.57zM72.472 1.127v29.417h4.32v-7.611l2.921-2.757 6.624 10.368h5.184l-8.846-13.207 7.982-7.817H85.35l-8.558 8.434V1.127h-4.32zM101.935 17.831c-3.045-.699-5.39-.864-5.39-3.003 0-1.481 1.399-2.469 3.991-2.469 3.374 0 4.197 1.687 4.485 3.333h4.197c-.288-3.662-3.003-6.747-8.722-6.747-5.266 0-8.311 2.757-8.311 6.213 0 4.773 4.526 5.431 7.858 6.213 3.086.741 5.595.946 5.595 3.579 0 1.317-1.275 2.798-4.279 2.798-4.443 0-5.431-1.934-5.637-4.197h-4.197c.206 4.443 3.127 7.611 9.915 7.611 5.102 0 8.558-2.51 8.558-6.542 0-5.019-4.197-5.883-8.064-6.789zM124.123 8.944c-3.538 0-5.719 1.646-6.83 3.291h-.082V1.126h-4.32v29.417h4.32V17.748c0-3.127 2.263-5.143 5.431-5.143 3.003 0 4.197 1.81 4.197 4.649v13.289h4.361V16.02c0-4.814-3.086-7.077-7.077-7.077zM144.448 27.623c-3.826 0-6.089-2.921-6.089-6.459h16.128c0-7.488-3.333-12.219-10.121-12.219-6.336 0-10.327 4.279-10.327 11.109 0 6.583 3.991 11.109 10.533 11.109 5.39 0 8.517-3.045 9.586-7.035h-4.32c-.37 1.275-1.81 3.497-5.39 3.497zm-.082-15.264c3.497 0 5.801 2.345 5.801 5.595h-11.808c0-3.25 2.51-5.595 6.007-5.595zM157.531 1.127v29.417h4.361V1.127h-4.361zM176.003 4.665V1.127a15.12 15.12 0 0 0-2.88-.288c-3.456 0-5.349 1.563-5.349 6.007V9.52h-3.003v3.538h3.003v17.486h4.361V13.058h3.867V9.52h-3.867V7.216c0-2.386 1.07-2.674 3.867-2.551z"/>
    </symbol>
    <symbol id="toggler-rect" viewBox="0 0 64 32">
      <path d="M0 16C0 7.163 7.163 0 16 0h32c8.836 0 16 7.163 16 16s-7.164 16-16 16H16C7.163 32 0 24.836 0 16z"/>
    </symbol>
    <symbol id="toggler-point" viewBox="0 0 32 32">
      <path d="M14.769 24.615c6.118 0 11.077-4.959 11.077-11.077S20.887 2.461 14.769 2.461 3.692 7.42 3.692 13.538s4.959 11.077 11.077 11.077z"/>
    </symbol>
    <symbol id="burger_black" viewBox="0 0 32 32">
        <path d="M19.8333 11.6667H3.5" stroke="#111111" stroke-width="2" stroke-linecap="round" stroke-linejoin="round"/>
        <path d="M24.5 7H3.5" stroke="#111111" stroke-width="2" stroke-linecap="round" stroke-linejoin="round"/>
        <path d="M24.5 16.3333H3.5" stroke="#111111" stroke-width="2" stroke-linecap="round" stroke-linejoin="round"/>
        <path d="M19.8333 21H3.5" stroke="#111111" stroke-width="2" stroke-linecap="round" stroke-linejoin="round"/>
    </symbol>
    <symbol id="burger_white" viewBox="0 0 32 32">
        <path d="M19.8333 11.6667H3.5" stroke="white" stroke-width="2" stroke-linecap="round" stroke-linejoin="round"/>
        <path d="M24.5 7H3.5" stroke="white" stroke-width="2" stroke-linecap="round" stroke-linejoin="round"/>
        <path d="M24.5 16.3333H3.5" stroke="white" stroke-width="2" stroke-linecap="round" stroke-linejoin="round"/>
        <path d="M19.8333 21H3.5" stroke="white" stroke-width="2" stroke-linecap="round" stroke-linejoin="round"/>
    </symbol>
    <symbol id="arrow_icon-double-small-left" viewBox="0 0 32 32"><path fill="#FFF" d="M13.973 25.333a1.329 1.329 0 0 1-.933-.387l-6.12-6.12c-.723-.724-1.17-1.723-1.17-2.827s.447-2.103 1.17-2.827l6.12-6.12a1.334 1.334 0 1 1 1.88 1.894L8.8 15.053c-.244.242-.395.576-.395.947s.151.705.395.947l6.12 6.107a1.326 1.326 0 0 1 .288 1.469l.003-.009c-.206.486-.678.82-1.229.82h-.01.001z" style="fill:var(--color1, #FFFFFF)"/><path fill="#FFF" d="M23.307 25.333a1.329 1.329 0 0 1-.933-.387l-8-8a1.328 1.328 0 0 1-.001-1.894l8-8a1.334 1.334 0 1 1 1.88 1.894L17.2 15.999l7.053 7.053a1.328 1.328 0 0 1 .001 1.894 1.33 1.33 0 0 1-.939.387h-.008z" style="fill:var(--color1, #FFFFFF)"/></symbol>
    <symbol id="arrow_icon-double-small-right" viewBox="0 0 32 32"><path d="M17.467 25.333a1.333 1.333 0 0 1-.934-2.28l6.133-6.107a1.333 1.333 0 0 0 0-1.894l-6.133-6.107a1.328 1.328 0 0 1-.001-1.894c.241-.24.573-.388.94-.388s.699.148.94.388l6.12 6.12c.723.724 1.17 1.723 1.17 2.827s-.447 2.103-1.17 2.827l-6.12 6.12a1.33 1.33 0 0 1-.939.387h-.008z" style="fill:var(--color1, #000000)"/><path d="M8.133 25.333a1.333 1.333 0 0 1-.934-2.28L14.252 16 7.199 8.947a1.333 1.333 0 0 1 .94-2.281c.367 0 .699.148.94.388l8 8a1.333 1.333 0 0 1 0 1.894l-8 8a1.33 1.33 0 0 1-.939.387h-.008z" style="fill:var(--color1, #000000)"/></symbol>
    <symbol id="arrow_icon-small-left" viewBox="0 0 32 32"><path fill="#FFF" d="M14.133 16.947a1.333 1.333 0 0 1 0-1.894l6.12-6.107a1.333 1.333 0 0 0-.94-2.281c-.367 0-.699.148-.94.388l-6.12 6.12c-.723.724-1.17 1.723-1.17 2.827s.447 2.103 1.17 2.827l6.12 6.12a1.334 1.334 0 1 0 1.88-1.894l-6.12-6.107z" style="fill:var(--color1, #FFFFFF)"/></symbol>
    <symbol id="arrow_icon-small-right" viewBox="0 0 32 32"><path d="m20.533 13.173-6.12-6.12a1.334 1.334 0 1 0-1.88 1.894l6.133 6.107a1.326 1.326 0 0 1 .288 1.469l.003-.009a1.335 1.335 0 0 1-.293.433l-6.133 6.107a1.333 1.333 0 0 0 .94 2.281c.367 0 .699-.148.94-.387l6.12-6.12c.723-.724 1.17-1.723 1.17-2.827s-.447-2.103-1.17-2.827z" style="fill:var(--color1, #000000)"/></symbol>
    
  </defs>
</svg>
