<svg xmlns="http://www.w3.org/2000/svg" aria-hidden="true" style="position:absolute;width:0;height:0;overflow:hidden">
  <defs>
  <!-- header -->
    <symbol id="logo" viewBox="0 0 32 32">
      <path d="m0 0 16.343 16.171L32 32V0H0z" fill="#F6F6F6"/>
      <path d="M4.457 4.229 16.4 16.058l11.257 11.486h-23.2V4.23z" fill="#F6F6F6"/>
      <path d="M27.733 27.618 15.79 15.789 4.533 4.303h23.2v23.314z" fill="#4F2EE8"/>
      <path d="m9.257 9.029 13.6 13.6h-13.6v-13.6z" fill="#4F2EE8"/>
      <path d="m9.257 9.029 13.6 13.6v-13.6h-13.6z" fill="#F6F6F6"/>
    </symbol>
    <symbol id="Bookshelf" viewBox="0 0 176 32">
      <path d="M22.176 8.533c0-4.731-3.497-7.406-9.545-7.406H0v29.417h13.33c6.089 0 9.998-2.921 9.998-8.599 0-4.402-2.633-6.665-5.719-7.2v-.082c2.427-.823 4.567-2.51 4.567-6.13zm-17.28 4.772V5.282h7.858c2.921 0 4.526 1.44 4.526 4.032s-1.317 3.991-4.814 3.991h-7.57zm0 3.662h8.599c3.086 0 4.937 1.687 4.937 4.69 0 2.757-1.275 4.731-5.472 4.731H4.896v-9.422zM35.89 31.161c-6.583 0-10.574-4.567-10.574-11.109S29.307 8.943 35.89 8.943s10.574 4.567 10.574 11.109-3.991 11.109-10.574 11.109zm0-3.538c4.114 0 6.254-3.25 6.254-7.57 0-4.361-2.139-7.57-6.254-7.57s-6.254 3.209-6.254 7.57c0 4.32 2.139 7.57 6.254 7.57zM58.912 31.161c-6.583 0-10.574-4.567-10.574-11.109S52.329 8.943 58.912 8.943s10.574 4.567 10.574 11.109-3.991 11.109-10.574 11.109zm0-3.538c4.114 0 6.254-3.25 6.254-7.57 0-4.361-2.139-7.57-6.254-7.57s-6.254 3.209-6.254 7.57c0 4.32 2.139 7.57 6.254 7.57zM72.472 1.127v29.417h4.32v-7.611l2.921-2.757 6.624 10.368h5.184l-8.846-13.207 7.982-7.817H85.35l-8.558 8.434V1.127h-4.32zM101.935 17.831c-3.045-.699-5.39-.864-5.39-3.003 0-1.481 1.399-2.469 3.991-2.469 3.374 0 4.197 1.687 4.485 3.333h4.197c-.288-3.662-3.003-6.747-8.722-6.747-5.266 0-8.311 2.757-8.311 6.213 0 4.773 4.526 5.431 7.858 6.213 3.086.741 5.595.946 5.595 3.579 0 1.317-1.275 2.798-4.279 2.798-4.443 0-5.431-1.934-5.637-4.197h-4.197c.206 4.443 3.127 7.611 9.915 7.611 5.102 0 8.558-2.51 8.558-6.542 0-5.019-4.197-5.883-8.064-6.789zM124.123 8.944c-3.538 0-5.719 1.646-6.83 3.291h-.082V1.126h-4.32v29.417h4.32V17.748c0-3.127 2.263-5.143 5.431-5.143 3.003 0 4.197 1.81 4.197 4.649v13.289h4.361V16.02c0-4.814-3.086-7.077-7.077-7.077zM144.448 27.623c-3.826 0-6.089-2.921-6.089-6.459h16.128c0-7.488-3.333-12.219-10.121-12.219-6.336 0-10.327 4.279-10.327 11.109 0 6.583 3.991 11.109 10.533 11.109 5.39 0 8.517-3.045 9.586-7.035h-4.32c-.37 1.275-1.81 3.497-5.39 3.497zm-.082-15.264c3.497 0 5.801 2.345 5.801 5.595h-11.808c0-3.25 2.51-5.595 6.007-5.595zM157.531 1.127v29.417h4.361V1.127h-4.361zM176.003 4.665V1.127a15.12 15.12 0 0 0-2.88-.288c-3.456 0-5.349 1.563-5.349 6.007V9.52h-3.003v3.538h3.003v17.486h4.361V13.058h3.867V9.52h-3.867V7.216c0-2.386 1.07-2.674 3.867-2.551z"/>
    </symbol>
    <symbol id="toggler-rect" viewBox="0 0 64 32">
      <path d="M0 16C0 7.163 7.163 0 16 0h32c8.836 0 16 7.163 16 16s-7.164 16-16 16H16C7.163 32 0 24.836 0 16z"/>
    </symbol>
    <symbol id="toggler-point" viewBox="0 0 32 32">
      <path d="M14.769 24.615c6.118 0 11.077-4.959 11.077-11.077S20.887 2.461 14.769 2.461 3.692 7.42 3.692 13.538s4.959 11.077 11.077 11.077z"/>
    </symbol>
    <symbol id="burger" viewBox="0 0 32 32"><path stroke-linecap="round" stroke-linejoin="round" stroke-width="2.286" d="M22.667 13.333H4M28 8H4M28 18.667H4M22.667 24H4"/>
    </symbol>
    <symbol id="uil_cart" viewBox="0 0 32 32">
        <path d="M25.333 9.333h-4v-1.333c0-1.415-0.562-2.771-1.562-3.771s-2.357-1.562-3.771-1.562c-1.414 0-2.771 0.562-3.771 1.562s-1.562 2.357-1.562 3.771v1.333h-4c-0.354 0-0.693 0.14-0.943 0.391s-0.391 0.589-0.391 0.943v14.667c0 1.061 0.421 2.078 1.172 2.828s1.768 1.172 2.828 1.172h13.333c1.061 0 2.078-0.421 2.828-1.172s1.172-1.768 1.172-2.828v-14.667c0-0.354-0.14-0.693-0.391-0.943s-0.589-0.391-0.943-0.391zM13.333 8c0-0.707 0.281-1.386 0.781-1.886s1.178-0.781 1.886-0.781c0.707 0 1.385 0.281 1.886 0.781s0.781 1.178 0.781 1.886v1.333h-5.333v-1.333zM24 25.333c0 0.354-0.14 0.693-0.391 0.943s-0.589 0.391-0.943 0.391h-13.333c-0.354 0-0.693-0.14-0.943-0.391s-0.391-0.589-0.391-0.943v-13.333h2.667v1.333c0 0.354 0.14 0.693 0.391 0.943s0.589 0.391 0.943 0.391c0.354 0 0.693-0.14 0.943-0.391s0.391-0.589 0.391-0.943v-1.333h5.333v1.333c0 0.354 0.14 0.693 0.39 0.943s0.589 0.391 0.943 0.391 0.693-0.14 0.943-0.391c0.25-0.25 0.391-0.589 0.391-0.943v-1.333h2.667v13.333z"></path>
    </symbol>
    <symbol id="icon-x-close" viewBox="0 0 32 32">
            <path stroke-linejoin="round" stroke-linecap="round" stroke-miterlimit="4"
                stroke-width="3.4286" d="M24 8l-16 16M8 8l16 16"></path>
    </symbol>
    <!-- support -->
    <symbol id="icon-trident" viewBox="0 0 20 32">
        <path d="M9.005 30.888c-1.738-1.262-2.991-3.156-3.414-5.351h-5.591v-23.117c2.991 1.443 5.153 4.599 5.388 7.876l0.846 6.493-0.407-0.045c-0.893 0-1.676 0.812-1.676 1.608 0 0.752 0.595 1.383 1.378 1.548l1.018 0.226c1.676-3.051 2.631-6.042 2.631-8.973 0-2.645-0.36-5.291-0.423-7.996 0-1.202 0.486-2.3 1.253-3.156 0.783 0.857 1.253 1.954 1.253 3.156 0 2.705-0.423 5.351-0.423 7.996 0 2.931 0.955 5.922 2.631 8.973l1.018-0.226c0.783-0.165 1.378-0.812 1.378-1.548 0-0.812-0.783-1.608-1.676-1.608l-0.423 0.060 0.846-6.493c0.423-3.277 2.396-6.448 5.388-7.876v23.117h-5.576c-0.423 2.179-1.613 4.148-3.414 5.351-0.423 0.286-0.783 0.631-1.018 1.097-0.219-0.466-0.579-0.812-0.987-1.112zM2.647 17.556c0.235-0.857 0.893-1.608 1.738-2.074l-0.658-5.351c-0.235-1.668-0.955-3.156-2.036-4.374v11.784h0.955v0.015zM5.466 23.929c0-0.812 0.125-1.548 0.298-2.3l-0.783-0.18c-1.143-0.346-2.036-1.203-2.334-2.3h-0.955v4.78h3.774zM9.178 23.929c0-0.977-0.783-1.834-1.801-1.954-0.172 0.631-0.298 1.263-0.298 1.954h2.099zM9.178 25.552h-1.864c0.298 1.263 0.955 2.42 1.864 3.397v-3.397zM11.809 20.547c-0.72-1.262-1.378-2.585-1.801-3.968-0.423 1.383-1.081 2.706-1.801 3.968 0.72 0.165 1.316 0.631 1.801 1.157 0.486-0.526 1.081-0.992 1.801-1.157zM12.952 23.929c0-0.691-0.125-1.323-0.297-1.954-1.018 0.12-1.801 0.977-1.801 1.954h2.099zM12.717 25.552h-1.864v3.397c0.908-0.992 1.566-2.134 1.864-3.397zM18.34 23.929v-4.78h-0.955c-0.298 1.097-1.206 1.954-2.334 2.3l-0.783 0.18c0.172 0.752 0.298 1.488 0.298 2.3h3.774zM18.34 17.556v-11.799c-1.081 1.202-1.864 2.706-2.036 4.374l-0.658 5.351c0.846 0.466 1.504 1.203 1.739 2.074h0.955z"></path>
    </symbol>
    <symbol id="icon-ar-down" viewBox="0 0 32 32">
<path fill="#4f2ee8" style="fill: var(--color1, #4f2ee8)" d="M15.053 17.867c0.124 0.125 0.271 0.224 0.434 0.292s0.337 0.103 0.513 0.103 0.35-0.035 0.513-0.103c0.162-0.068 0.31-0.167 0.434-0.292l6.107-6.12c0.124-0.125 0.271-0.224 0.434-0.292s0.337-0.103 0.513-0.103c0.176 0 0.35 0.035 0.513 0.103s0.31 0.167 0.434 0.292c0.248 0.25 0.388 0.588 0.388 0.94s-0.139 0.69-0.388 0.94l-6.12 6.12c-0.75 0.749-1.767 1.17-2.827 1.17s-2.077-0.421-2.827-1.17l-6.12-6.12c-0.246-0.248-0.385-0.584-0.387-0.933-0.001-0.175 0.033-0.349 0.099-0.512s0.164-0.31 0.288-0.435c0.124-0.125 0.271-0.224 0.434-0.292s0.337-0.103 0.513-0.103c0.176 0 0.35 0.035 0.513 0.103s0.31 0.167 0.434 0.292l6.107 6.12z"></path>
</symbol>
    <symbol id="icon-ar-up" viewBox="0 0 32 32">
<path fill="#4f2ee8" style="fill: var(--color1, #4f2ee8)" d="M15.053 14.133c0.124-0.125 0.271-0.224 0.434-0.292s0.337-0.103 0.513-0.103c0.176 0 0.35 0.035 0.513 0.103s0.31 0.167 0.434 0.292l6.107 6.12c0.124 0.125 0.271 0.224 0.434 0.292s0.337 0.103 0.513 0.103 0.35-0.035 0.513-0.103c0.162-0.068 0.31-0.167 0.434-0.292 0.248-0.25 0.388-0.588 0.388-0.94s-0.14-0.69-0.388-0.94l-6.12-6.12c-0.75-0.749-1.767-1.17-2.827-1.17s-2.077 0.421-2.827 1.17l-6.12 6.12c-0.246 0.248-0.385 0.584-0.387 0.933-0.001 0.176 0.033 0.35 0.099 0.512s0.164 0.31 0.288 0.435c0.124 0.125 0.271 0.224 0.434 0.292s0.337 0.103 0.513 0.103 0.35-0.035 0.513-0.103c0.162-0.068 0.31-0.167 0.434-0.292l6.107-6.12z"></path>
</symbol>
    <!-- shopping-list -->
    <symbol id="arrow_icon-double-small-left" viewBox="0 0 32 32"><path fill="#FFF" d="M13.973 25.333a1.329 1.329 0 0 1-.933-.387l-6.12-6.12c-.723-.724-1.17-1.723-1.17-2.827s.447-2.103 1.17-2.827l6.12-6.12a1.334 1.334 0 1 1 1.88 1.894L8.8 15.053c-.244.242-.395.576-.395.947s.151.705.395.947l6.12 6.107a1.326 1.326 0 0 1 .288 1.469l.003-.009c-.206.486-.678.82-1.229.82h-.01.001z" style="fill:var(--color1, #FFFFFF)"/><path fill="#FFF" d="M23.307 25.333a1.329 1.329 0 0 1-.933-.387l-8-8a1.328 1.328 0 0 1-.001-1.894l8-8a1.334 1.334 0 1 1 1.88 1.894L17.2 15.999l7.053 7.053a1.328 1.328 0 0 1 .001 1.894 1.33 1.33 0 0 1-.939.387h-.008z" style="fill:var(--color1, #FFFFFF)"/></symbol>
    <symbol id="arrow_icon-double-small-right" viewBox="0 0 32 32"><path d="M17.467 25.333a1.333 1.333 0 0 1-.934-2.28l6.133-6.107a1.333 1.333 0 0 0 0-1.894l-6.133-6.107a1.328 1.328 0 0 1-.001-1.894c.241-.24.573-.388.94-.388s.699.148.94.388l6.12 6.12c.723.724 1.17 1.723 1.17 2.827s-.447 2.103-1.17 2.827l-6.12 6.12a1.33 1.33 0 0 1-.939.387h-.008z" style="fill:var(--color1, #000000)"/><path d="M8.133 25.333a1.333 1.333 0 0 1-.934-2.28L14.252 16 7.199 8.947a1.333 1.333 0 0 1 .94-2.281c.367 0 .699.148.94.388l8 8a1.333 1.333 0 0 1 0 1.894l-8 8a1.33 1.33 0 0 1-.939.387h-.008z" style="fill:var(--color1, #000000)"/></symbol>
    <symbol id="arrow_icon-small-left" viewBox="0 0 32 32"><path fill="#FFF" d="M14.133 16.947a1.333 1.333 0 0 1 0-1.894l6.12-6.107a1.333 1.333 0 0 0-.94-2.281c-.367 0-.699.148-.94.388l-6.12 6.12c-.723.724-1.17 1.723-1.17 2.827s.447 2.103 1.17 2.827l6.12 6.12a1.334 1.334 0 1 0 1.88-1.894l-6.12-6.107z" style="fill:var(--color1, #FFFFFF)"/></symbol>
    <symbol id="arrow_icon-small-right" viewBox="0 0 32 32"><path d="m20.533 13.173-6.12-6.12a1.334 1.334 0 1 0-1.88 1.894l6.133 6.107a1.326 1.326 0 0 1 .288 1.469l.003-.009a1.335 1.335 0 0 1-.293.433l-6.133 6.107a1.333 1.333 0 0 0 .94 2.281c.367 0 .699-.148.94-.387l6.12-6.12c.723-.724 1.17-1.723 1.17-2.827s-.447-2.103-1.17-2.827z" style="fill:var(--color1, #000000)"/></symbol>  
    <symbol id="sign-up-icon" viewBox="0 0 20 20" fill="none">
            <path
                d="M3.33325 10H16.6666M16.6666 10L11.6666 5M16.6666 10L11.6666 15"
                stroke="#EAC645"
                stroke-width="2"
                stroke-linecap="round"
                stroke-linejoin="round"
            />
    </symbol>
    <symbol id="icon-arrow-narrow-right" viewBox="0 0 32 32">
            <path fill="none" stroke="#eac645" style="stroke: var(--color1, #eac645)"
                stroke-linejoin="round" stroke-linecap="round" stroke-miterlimit="4"
                stroke-width="3.2" d="M5.333 16h21.333M26.667 16l-8-8M26.667 16l-8 8"></path>
    </symbol>
    <symbol id="trash-icon" viewBox="0 0 32 32">
            <path stroke-linejoin="round" stroke-linecap="round" stroke-miterlimit="4"
                stroke-width="2.9091"
                d="M12 4h8M4 8h24M25.334 8l-0.935 14.026c-0.141 2.103-0.211 3.156-0.665 3.953-0.405 0.703-0.997 1.259-1.707 1.61l-0.023 0.010c-0.828 0.4-1.881 0.4-3.99 0.4h-4.026c-2.109 0-3.162 0-3.99-0.4-0.734-0.361-1.326-0.917-1.721-1.601l-0.010-0.019c-0.454-0.797-0.524-1.85-0.665-3.953l-0.935-14.026M13.334 14v6.666M18.666 14v6.666"></path>
    </symbol>
   
    
  </defs>
</svg>
