<svg width="22" height="22" viewBox="0 0 22 22" fill="none" xmlns="http://www.w3.org/2000/svg">
<path d="M10.3491 9.71657C10.4343 9.63066 10.5357 9.56246 10.6474 9.51592C10.7591 9.46939 10.8789 9.44543 11 9.44543C11.121 9.44543 11.2408 9.46939 11.3525 9.51592C11.4642 9.56246 11.5656 9.63066 11.6508 9.71657L15.8491 13.9241C15.9343 14.01 16.0357 14.0782 16.1474 14.1247C16.2591 14.1713 16.379 14.1952 16.5 14.1952C16.621 14.1952 16.7408 14.1713 16.8525 14.1247C16.9642 14.0782 17.0656 14.01 17.1508 13.9241C17.3215 13.7523 17.4174 13.52 17.4174 13.2778C17.4174 13.0357 17.3215 12.8033 17.1508 12.6316L12.9433 8.42407C12.4277 7.90909 11.7287 7.61983 11 7.61983C10.2712 7.61983 9.57225 7.90909 9.05662 8.42407L4.84912 12.6316C4.67977 12.8023 4.58429 13.0328 4.58328 13.2732C4.58258 13.3939 4.60571 13.5135 4.65132 13.6252C4.69694 13.7368 4.76416 13.8384 4.84912 13.9241C4.93433 14.01 5.03572 14.0782 5.14742 14.1247C5.25912 14.1713 5.37894 14.1952 5.49995 14.1952C5.62096 14.1952 5.74077 14.1713 5.85248 14.1247C5.96418 14.0782 6.06557 14.01 6.15078 13.9241L10.3491 9.71657Z" fill="#4F2EE8"/>
</svg>
